<svg width="158" height="33" viewBox="0 0 158 33" fill="none" xmlns="http://www.w3.org/2000/svg">
<path fill-rule="evenodd" clip-rule="evenodd" d="M8.79912 2.0003C2.66717 6.35087 -1.56482 15.6465 0.552008 23.1839C1.39561 26.1875 3.15058 28.7938 6.00341 30.4528C13.6646 34.9078 23.9238 31.4522 26.3078 23.3678C28.5363 15.8107 24.2465 6.38481 18.2622 2.15573C15.1328 -0.0559999 11.9241 -0.216928 8.79912 2.0003ZM4.99342 16.6951V21.2989H6.39729C7.03698 21.2989 7.55715 21.0841 7.9614 20.6542C8.36386 20.2261 8.56612 19.6719 8.56612 18.9933C8.56612 18.3165 8.36386 17.7641 7.9614 17.3361C7.55715 16.9082 7.03698 16.6951 6.39729 16.6951H4.99342ZM3.1078 22.86V15.1341H5.9345C6.74288 15.1341 7.36976 15.1962 7.81449 15.3226C8.25922 15.4471 8.6691 15.6525 9.04185 15.9409C9.52347 16.3125 9.88737 16.7574 10.1355 17.2738C10.3836 17.7905 10.5067 18.3653 10.5067 18.9933C10.5067 19.6833 10.3561 20.3072 10.0548 20.8691C9.75326 21.4308 9.31596 21.8986 8.74621 22.2737C8.42279 22.4848 8.06619 22.6337 7.67461 22.7243C7.2833 22.8147 6.70253 22.86 5.9345 22.86H3.1078ZM11.29 22.86V15.1341H16.3289V16.5593H13.1755V18.1318H16.1856V19.5683H13.1755V21.4121H16.4173V22.86H11.29ZM20.4217 22.9277L17.0033 15.1341H19.0214L20.8831 19.6248L22.8696 15.1341H24.9097L21.2377 22.9277H20.4217Z" fill="#0B1722"/>
<path d="M33.8816 24.5259V9.225H37.5229V24.5259H33.8816ZM43.871 14.9113V24.5259H40.3748V9.225H43.4745L51.0502 18.3466V9.225H54.5469V24.5259H51.7779L43.871 14.9113ZM69.688 23.2417C68.8396 23.7682 67.9708 24.1562 67.0813 24.4139C66.1915 24.6677 65.2569 24.7949 64.2813 24.7949C63.1779 24.7949 62.1606 24.612 61.2365 24.2495C60.3087 23.884 59.4988 23.3463 58.8054 22.6405C58.0916 21.9047 57.5468 21.0422 57.1745 20.0604C56.7986 19.0747 56.6124 18.018 56.6124 16.8868C56.6124 14.5084 57.3435 12.593 58.8088 11.1366C60.2744 9.68432 62.2089 8.95605 64.612 8.95605C65.4746 8.95605 66.3155 9.05685 67.1329 9.26219C67.9539 9.46752 68.7639 9.78138 69.564 10.2033V13.7953C68.7843 13.2462 67.9984 12.8355 67.2123 12.5668C66.4227 12.2941 65.6361 12.1598 64.8466 12.1598C63.4226 12.1598 62.2985 12.578 61.4811 13.4181C60.6642 14.2581 60.254 15.4118 60.254 16.8868C60.254 18.3169 60.6436 19.4594 61.4263 20.3104C62.2053 21.1655 63.257 21.5911 64.5779 21.5911C65.4258 21.5911 66.2776 21.4307 67.1329 21.1058C67.9878 20.7812 68.8396 20.2994 69.688 19.6647V23.2417ZM85.0427 9.225V17.9844C85.0427 20.1275 84.4565 21.7964 83.2808 22.995C82.1048 24.1938 80.4636 24.7949 78.3565 24.7949C76.2536 24.7949 74.6152 24.1938 73.4394 22.995C72.2639 21.7964 71.6777 20.1275 71.6777 17.9844V9.225H75.2362V17.8314C75.2362 19.0487 75.5049 19.9783 76.0433 20.6241C76.5807 21.27 77.3637 21.5911 78.3844 21.5911C79.4018 21.5911 80.1773 21.27 80.7087 20.6278C81.2391 19.9896 81.5047 19.056 81.5047 17.8314V9.225H85.0427ZM91.2908 21.7258H93.3392C94.2566 21.7258 94.9079 21.5874 95.2978 21.3114C95.6871 21.0312 95.884 20.5721 95.884 19.9334C95.884 19.2763 95.677 18.7907 95.2634 18.4771C94.8495 18.1635 94.2013 18.007 93.3186 18.007H91.2908V21.7258ZM93.1186 15.2736C93.7565 15.2736 94.2321 15.1431 94.5462 14.8779C94.8601 14.6166 95.0151 14.2209 95.0151 13.687C95.0151 13.097 94.8565 12.6561 94.5393 12.3689C94.2256 12.0813 93.7495 11.9356 93.1186 11.9356H91.2908V15.2736H93.1186ZM87.7324 24.5259V9.225H92.946C94.8048 9.225 96.2084 9.55336 97.1529 10.2145C98.1016 10.8752 98.5736 11.8537 98.5736 13.1529C98.5736 13.8287 98.4149 14.4225 98.0946 14.934C97.7735 15.4455 97.3046 15.8489 96.6944 16.1473C97.6805 16.4834 98.4186 16.9801 98.9012 17.6408C99.3871 18.3017 99.6287 19.1345 99.6287 20.1388C99.6287 21.6063 99.1631 22.7038 98.2357 23.4319C97.3084 24.1599 95.9118 24.5259 94.0461 24.5259H87.7324ZM105.832 18.9252H110.005L108.025 13.1007L105.832 18.9252ZM99.9149 24.5259L106.077 9.225H110.156L115.66 24.5259H111.911L110.901 21.5464H104.811L103.68 24.5259H99.9149ZM118.939 24.5259V12.0703H114.263V9.225H127.339V12.0703H122.663V24.5259H118.939ZM131.808 16.8868C131.808 18.2496 132.187 19.3733 132.942 20.2506C133.701 21.1283 134.666 21.5686 135.839 21.5686C137.014 21.5686 137.983 21.1283 138.742 20.2506C139.497 19.3733 139.876 18.2496 139.876 16.8868C139.876 15.5163 139.497 14.3886 138.742 13.5076C137.983 12.6227 137.014 12.1821 135.839 12.1821C134.666 12.1821 133.701 12.6227 132.942 13.5076C132.187 14.3886 131.808 15.5163 131.808 16.8868ZM128.166 16.8868C128.166 15.7481 128.352 14.6985 128.721 13.7317C129.093 12.7646 129.645 11.9021 130.38 11.1441C131.094 10.4161 131.904 9.87072 132.811 9.51618C133.718 9.15765 134.725 8.97851 135.839 8.97851C136.962 8.97851 137.98 9.15765 138.89 9.51991C139.801 9.88218 140.611 10.4236 141.324 11.1441C142.052 11.9021 142.604 12.7646 142.976 13.7317C143.352 14.6985 143.538 15.7481 143.538 16.8868C143.538 18.018 143.352 19.0634 142.976 20.0305C142.604 20.9978 142.052 21.8526 141.324 22.5956C140.604 23.3236 139.787 23.8727 138.873 24.242C137.962 24.612 136.949 24.7949 135.839 24.7949C134.732 24.7949 133.728 24.612 132.821 24.2495C131.915 23.884 131.101 23.3311 130.38 22.5956C129.652 21.8526 129.1 20.9978 128.728 20.0305C128.352 19.0634 128.166 18.018 128.166 16.8868ZM150.928 15.4976C151.583 15.4976 152.069 15.3484 152.39 15.0535C152.71 14.7584 152.869 14.3105 152.869 13.7055C152.869 13.1304 152.703 12.69 152.369 12.3874C152.035 12.085 151.555 11.9356 150.928 11.9356H149.228V15.4976H150.928ZM145.69 24.5259V9.225H150.907C152.825 9.225 154.242 9.58726 155.159 10.3078C156.072 11.0284 156.531 12.1486 156.531 13.6643C156.531 14.5084 156.328 15.2327 155.924 15.8337C155.521 16.4347 154.904 16.9427 154.069 17.3571C154.421 17.4953 154.735 17.7269 155.014 18.0515C155.293 18.3763 155.535 18.787 155.745 19.2837L158 24.5259H154.01L152.21 20.1163C151.921 19.4142 151.59 18.9329 151.221 18.6715C150.849 18.4063 150.324 18.2755 149.642 18.2755C149.59 18.2755 149.518 18.2793 149.431 18.2867C149.342 18.2942 149.276 18.298 149.228 18.298V24.5259H145.69Z" fill="#0B1722"/>
</svg>
